<?xml version="1.0" standalone="no"?>
<!DOCTYPE svg PUBLIC "-//W3C//DTD SVG 20010904//EN"
 "http://www.w3.org/TR/2001/REC-SVG-20010904/DTD/svg10.dtd">
<svg version="1.0" xmlns="http://www.w3.org/2000/svg"
 width="225.000000pt" height="225.000000pt" viewBox="0 0 225.000000 225.000000"
 preserveAspectRatio="xMidYMid meet">
<metadata>
Created by potrace 1.16, written by Peter Selinger 2001-2019
</metadata>
<g transform="translate(0.000000,225.000000) scale(0.100000,-0.100000)"
fill="#000000" stroke="none">
<path d="M0 1125 l0 -1125 1125 0 1125 0 0 1125 0 1125 -1125 0 -1125 0 0
-1125z m1275 841 c104 -19 164 -39 254 -87 75 -40 180 -118 215 -160 145 -174
210 -327 222 -524 24 -387 -216 -728 -596 -846 -65 -20 -95 -24 -230 -24 -166
0 -243 16 -351 71 l-47 23 -173 -55 c-96 -30 -198 -64 -228 -74 -30 -11 -57
-18 -59 -15 -2 2 29 103 70 224 l75 220 -37 75 c-56 114 -75 207 -75 361 1
151 15 217 76 345 161 338 524 529 884 466z"/>
<path d="M1028 1820 c-257 -47 -455 -221 -540 -475 -20 -60 -23 -89 -22 -205
1 -119 4 -144 27 -207 14 -40 41 -99 61 -132 l35 -61 -40 -116 c-22 -64 -38
-118 -36 -120 2 -2 58 14 125 36 l122 40 62 -35 c193 -105 454 -102 651 8 316
177 441 594 270 907 -93 171 -223 281 -398 336 -88 28 -236 39 -317 24z m-86
-279 c10 -9 78 -199 78 -216 0 -8 -16 -32 -35 -54 -19 -21 -35 -46 -35 -56 0
-28 88 -143 143 -187 29 -22 76 -52 106 -67 l53 -26 48 54 c57 64 64 64 185
-1 l80 -43 0 -53 c-1 -65 -24 -97 -95 -134 -75 -40 -127 -37 -251 12 -55 22
-126 56 -157 77 -113 75 -248 237 -309 370 -36 77 -38 178 -6 238 22 41 66 88
93 98 17 7 92 -2 102 -12z"/>
</g>
</svg>
